<?xml version="1.0" encoding="UTF-8"?>
<svg version="1.1" xmlns="http://www.w3.org/2000/svg" width="512" height="512">
<path d="M0 0 C0.90340118 -0.01022186 1.80680237 -0.02044373 2.73757935 -0.03097534 C5.70830171 -0.05865542 8.6780902 -0.05686266 11.64892578 -0.05224609 C13.72486716 -0.06002646 15.80080537 -0.06869712 17.8767395 -0.07821655 C22.22261893 -0.09311701 26.56817334 -0.09257634 30.9140625 -0.08203125 C36.46806252 -0.07044729 42.02072739 -0.10429915 47.57450676 -0.1507206 C51.86068425 -0.18026549 56.14654281 -0.18192929 60.43280411 -0.17570114 C62.47963225 -0.17672415 64.52647904 -0.18713553 66.57320786 -0.20732498 C85.87731649 -0.3743807 85.87731649 -0.3743807 92.24539185 4.96939087 C97.8746984 11.00386296 98.48384402 15.89916497 98.23095703 24.09619141 C97.46322748 29.27690072 95.54116746 32.97420457 91.71923828 36.54931641 C84.71923828 40.54931641 84.71923828 40.54931641 57.71923828 40.54931641 C57.71923828 159.34931641 57.71923828 278.14931641 57.71923828 400.54931641 C66.62923828 400.54931641 75.53923828 400.54931641 84.71923828 400.54931641 C96.31457726 408.27954239 96.31457726 408.27954239 97.71923828 413.54931641 C98.81619194 421.60658665 98.52696042 427.97975224 93.71533203 434.68212891 C87.96176131 440.06413831 83.04906052 441.14354271 75.43847656 441.09863281 C74.53507538 441.10885468 73.63167419 441.11907654 72.70089722 441.12960815 C69.73017485 441.15728824 66.76038636 441.15549548 63.78955078 441.15087891 C61.7136094 441.15865927 59.63767119 441.16732994 57.56173706 441.17684937 C53.21585764 441.19174983 48.87030322 441.19120915 44.52441406 441.18066406 C38.97041405 441.1690801 33.41774917 441.20293196 27.8639698 441.24935341 C23.57779231 441.27889831 19.29193375 441.2805621 15.00567245 441.27433395 C12.95884432 441.27535697 10.91199753 441.28576834 8.86526871 441.30595779 C-10.43883993 441.47301351 -10.43883993 441.47301351 -16.80691528 436.12924194 C-22.43622184 430.09476985 -23.04536745 425.19946785 -22.79248047 417.00244141 C-21.79602678 410.27828061 -18.67361455 406.42284128 -13.43701172 402.32275391 C-7.88726824 399.30871343 -1.46523537 400.13366947 4.65673828 400.29931641 C8.96736328 400.38181641 13.27798828 400.46431641 17.71923828 400.54931641 C17.71923828 387.34931641 17.71923828 374.14931641 17.71923828 360.54931641 C12.82021416 360.56264008 12.82021416 360.56264008 7.82221985 360.57623291 C-22.16211742 360.65591269 -52.14643101 360.71558551 -82.13084952 360.75357772 C-86.0646909 360.75858025 -89.99853204 360.76375757 -93.93237305 360.76904297 C-94.7154947 360.77009221 -95.49861635 360.77114145 -96.30546895 360.77222249 C-108.96788394 360.78960418 -121.63022592 360.82112948 -134.29259767 360.85792759 C-147.29570859 360.89539937 -160.29878139 360.91756541 -173.30194408 360.92567039 C-181.31870224 360.93114526 -189.335254 360.94840586 -197.3519486 360.98098227 C-203.51026521 361.00472473 -209.6684261 361.00712056 -215.82678223 361.00174713 C-218.34498677 361.0028441 -220.8631994 361.01075424 -223.38135719 361.02613831 C-244.36636825 361.1480113 -261.11254875 358.99685753 -276.99951172 343.88916016 C-287.7418515 332.87090411 -294.50860632 319.32841382 -294.54818726 303.76533508 C-294.55271837 303.02446551 -294.55724948 302.28359594 -294.5619179 301.52027577 C-294.57448606 299.06024574 -294.57294648 296.60043926 -294.57128906 294.14038086 C-294.57727914 292.36721007 -294.58408579 290.59404188 -294.59164429 288.82087708 C-294.60926469 284.01896415 -294.61399805 279.21712258 -294.61527586 274.41518044 C-294.6167005 271.40990415 -294.62097606 268.40464582 -294.62627029 265.39937401 C-294.64475893 254.89994537 -294.65294255 244.40056742 -294.65136719 233.90112305 C-294.65016677 224.13883444 -294.67125249 214.37676728 -294.70285451 204.61453468 C-294.72907408 196.21337995 -294.73973207 187.81229729 -294.73845637 179.411102 C-294.73794832 174.40230305 -294.74354416 169.39370093 -294.76481247 164.38494301 C-294.78429028 159.66931648 -294.78425456 154.95407258 -294.76977921 150.23843193 C-294.76770165 148.51683106 -294.77232849 146.79520564 -294.78450012 145.07364655 C-294.90547997 126.7625637 -290.53640958 111.41257672 -277.62060547 97.83056641 C-265.41049066 85.92621408 -251.27859617 80.21009651 -234.33422852 80.30880737 C-233.25341885 80.30709852 -232.17260918 80.30538967 -231.0590477 80.30362904 C-227.44929047 80.30034338 -223.83972048 80.31132278 -220.22998047 80.32226562 C-217.63770044 80.32282994 -215.0454201 80.32251279 -212.45314026 80.32138062 C-206.8782051 80.32033407 -201.3033169 80.32658649 -195.72839355 80.33785629 C-187.66808825 80.3541397 -179.60780556 80.3593222 -171.54748559 80.36183228 C-158.46881868 80.36620493 -145.39017678 80.37950235 -132.31152344 80.3984375 C-119.61002731 80.41680744 -106.90853799 80.43095849 -94.20703125 80.43945312 C-93.03181418 80.4402413 -93.03181418 80.4402413 -91.83285534 80.44104539 C-87.90220972 80.44365554 -83.97156405 80.44618294 -80.04091835 80.4486692 C-47.45418051 80.4693883 -14.86747625 80.50515418 17.71923828 80.54931641 C17.71923828 67.34931641 17.71923828 54.14931641 17.71923828 40.54931641 C9.23768821 40.78525922 9.23768821 40.78525922 0.75854492 41.08984375 C-7.2274657 41.20128482 -12.33824962 40.03587699 -18.28076172 34.54931641 C-22.86533671 29.1820091 -23.00706537 23.957952 -22.79248047 17.00244141 C-22.02475092 11.82173209 -20.1026909 8.12442824 -16.28076172 4.54931641 C-10.69413927 0.7284584 -6.69247394 -0.03949215 0 0 Z M-208.28076172 120.54931641 C-214.50322654 132.99424605 -214.5621709 144.22713128 -214.40576172 157.79931641 C-214.39570261 159.33446676 -214.38658198 160.86962356 -214.37841797 162.40478516 C-214.3566579 166.11976568 -214.32229306 169.83449802 -214.28076172 173.54931641 C-213.67232422 172.77974609 -213.06388672 172.01017578 -212.43701172 171.21728516 C-205.03001116 162.05246382 -205.03001116 162.05246382 -199.34288406 161.28925419 C-198.66377346 161.28460368 -197.98466286 161.27995317 -197.28497314 161.27516174 C-196.50010529 161.26518661 -195.71523743 161.25521149 -194.90658569 161.24493408 C-193.62855576 161.24393707 -193.62855576 161.24393707 -192.32470703 161.24291992 C-191.42013763 161.23459641 -190.51556824 161.22627289 -189.58358765 161.21769714 C-186.5919769 161.193595 -183.60058428 161.18482397 -180.60888672 161.17822266 C-178.5262648 161.16925527 -176.44364354 161.1601334 -174.36102295 161.15086365 C-169.99310745 161.13436965 -165.62526863 161.12667299 -161.25732422 161.1237793 C-155.6708392 161.11840046 -150.08507895 161.08074233 -144.49879837 161.03503513 C-140.1955505 161.00523229 -135.89247631 160.998055 -131.58913422 160.99705315 C-129.5303084 160.99285594 -127.47148182 160.98044177 -125.41275787 160.9595356 C-122.5261017 160.93255972 -119.64111406 160.93746566 -116.75439453 160.94995117 C-115.48850998 160.92769974 -115.48850998 160.92769974 -114.197052 160.90499878 C-108.09793878 160.97979595 -104.00827577 162.67999647 -99.28076172 166.54931641 C-94.68045628 171.9546753 -94.61293947 177.18320839 -94.83544922 184.16259766 C-95.45424765 188.8687226 -96.77649915 192.29920915 -100.28076172 195.54931641 C-106.83591994 200.46845946 -113.22819934 200.20713949 -121.21826172 200.29931641 C-122.47445312 200.32896484 -123.73064453 200.35861328 -125.02490234 200.38916016 C-128.11025226 200.45954837 -131.19485995 200.51240142 -134.28076172 200.54931641 C-134.28218674 201.37093262 -134.28361176 202.19254883 -134.28507996 203.0390625 C-134.30295821 210.80701342 -134.34471344 218.57430508 -134.41285229 226.34196472 C-134.44704772 230.33482273 -134.47222055 234.32730117 -134.47631836 238.3203125 C-134.4806175 242.17861719 -134.50921183 246.03606674 -134.5541935 249.894104 C-134.56711733 251.36113491 -134.57149437 252.82826843 -134.56691551 254.29534912 C-134.53078982 269.39364762 -134.53078982 269.39364762 -140.28076172 275.54931641 C-145.68612061 280.14962185 -150.9146537 280.21713866 -157.89404297 279.99462891 C-164.19306317 279.16638404 -167.51004385 276.8237405 -171.34570312 271.89697266 C-174.66399735 265.94563126 -173.88633291 258.8317422 -173.89013672 252.20947266 C-173.90513305 250.71730263 -173.92186325 249.22514911 -173.94024658 247.73301697 C-173.98376997 243.82533975 -174.0038855 239.91788639 -174.01898193 236.01000977 C-174.03860757 232.01451462 -174.08057124 228.01925933 -174.12060547 224.02392578 C-174.19574463 216.19912071 -174.24613421 208.37441682 -174.28076172 200.54931641 C-175.05677734 200.54520752 -175.83279297 200.54109863 -176.63232422 200.53686523 C-180.18255296 200.50376719 -183.73110266 200.43310204 -187.28076172 200.36181641 C-188.50150391 200.35601562 -189.72224609 200.35021484 -190.97998047 200.34423828 C-198.1697991 200.1693508 -203.90514498 199.69424998 -209.28076172 194.54931641 C-210.93901698 192.26534934 -212.07018625 190.12178927 -213.28076172 187.54931641 C-213.61076172 187.54931641 -213.94076172 187.54931641 -214.28076172 187.54931641 C-214.32763664 202.07542203 -214.3626928 216.6015158 -214.38438606 231.12768173 C-214.39466612 237.87355845 -214.40866332 244.61938797 -214.43164062 251.36523438 C-214.45345282 257.88156889 -214.465348 264.3978545 -214.4705162 270.91422272 C-214.47419695 273.39396178 -214.48138435 275.87369833 -214.49222183 278.35341644 C-214.50684804 281.84032367 -214.50873502 285.32703163 -214.5078125 288.81396484 C-214.51500305 289.82745499 -214.5221936 290.84094513 -214.52960205 291.88514709 C-214.49890599 302.68493103 -213.16760101 310.77563783 -208.28076172 320.54931641 C-133.70076172 320.54931641 -59.12076172 320.54931641 17.71923828 320.54931641 C17.71923828 254.54931641 17.71923828 188.54931641 17.71923828 120.54931641 C-56.86076172 120.54931641 -131.44076172 120.54931641 -208.28076172 120.54931641 Z " fill="#0023C4" transform="translate(294.28076171875,35.45068359375)"/>
<path d="M0 0 C1.24663422 -0.0038269 2.49326843 -0.00765381 3.77767944 -0.01159668 C7.08388441 -0.0150065 10.38933031 0.0010083 13.69543457 0.0234375 C17.01971069 0.03632307 20.34376266 0.00569716 23.66796875 -0.015625 C26.23698308 -0.01297957 28.8059963 -0.00785015 31.375 0 C32.55462311 -0.00809692 33.73424622 -0.01619385 34.94961548 -0.02453613 C51.10766744 0.154548 65.1248109 6.08443499 76.8046875 17.19140625 C87.54702728 28.20966229 94.3137821 41.75215259 94.35336304 57.31523132 C94.35789415 58.0561009 94.36242526 58.79697047 94.36709368 59.56029063 C94.37966184 62.02032067 94.37812226 64.48012715 94.37646484 66.94018555 C94.38245492 68.71335634 94.38926157 70.48652453 94.39682007 72.25968933 C94.41444047 77.06160226 94.41917383 81.86344383 94.42045164 86.66538596 C94.42187628 89.67066225 94.42615184 92.67592058 94.43144608 95.6811924 C94.44993471 106.18062103 94.45811833 116.67999899 94.45654297 127.17944336 C94.45534256 136.94173196 94.47642827 146.70379913 94.5080303 156.46603173 C94.53424986 164.86718646 94.54490785 173.26826912 94.54363215 181.66946441 C94.5431241 186.67826336 94.54871994 191.68686548 94.56998825 196.6956234 C94.58946606 201.41124992 94.58943034 206.12649382 94.57495499 210.84213448 C94.57287743 212.56373534 94.57750427 214.28536077 94.5896759 216.00691986 C94.71065575 234.3180027 90.34158536 249.66798969 77.42578125 263.25 C64.38987275 275.95946672 49.83630263 280.81060348 31.93359375 280.9375 C30.67888779 280.94890015 29.42418182 280.96030029 28.13145447 280.9720459 C25.48633359 280.99087802 22.8416627 281.00470723 20.1965332 281.01171875 C16.82945044 281.02269605 13.46398201 281.07081401 10.09740543 281.12766266 C6.85542696 281.17414444 3.61335857 281.17782653 0.37109375 281.1875 C-0.82603745 281.2121936 -2.02316864 281.23688721 -3.25657654 281.2623291 C-11.06329133 281.22103418 -16.05996625 279.81882738 -21.9140625 274.53125 C-26.49863749 269.16394269 -26.64036615 263.93988559 -26.42578125 256.984375 C-25.6580517 251.80366569 -23.73599168 248.10636183 -19.9140625 244.53125 C-13.97879796 240.35029912 -9.38586435 239.95484703 -2.23046875 239.9921875 C-0.70896461 239.97449814 -0.70896461 239.97449814 0.84327698 239.95645142 C4.07015445 239.92130231 7.29638459 239.91203541 10.5234375 239.90625 C13.74672449 239.88985019 16.96972598 239.86767822 20.19288635 239.83462524 C22.19292369 239.81516359 24.19309109 239.80564187 26.19322205 239.80770874 C34.36101354 239.74577755 41.59378846 238.99055715 48.0859375 233.53125 C52.71423257 227.45384018 53.20897546 221.20362997 53.21965027 213.78933716 C53.2230486 212.81006156 53.2230486 212.81006156 53.22651559 211.81100261 C53.23281384 209.63716702 53.23202893 207.46339445 53.23120117 205.28955078 C53.23419525 203.72531047 53.23759836 202.16107089 53.24137878 200.59683228 C53.25019718 196.35711225 53.25255598 192.11741242 53.25319457 187.87768412 C53.25390625 185.22657849 53.25604278 182.57547798 53.25869179 179.92437363 C53.26793773 170.66914291 53.27202757 161.41392659 53.27124023 152.15869141 C53.27063949 143.54157444 53.28119259 134.92452007 53.2969839 126.30741894 C53.310073 118.90001257 53.31542356 111.49262662 53.31478482 104.08520877 C53.31453026 99.66513229 53.31735855 95.24511147 53.32796288 90.82504654 C53.33766705 86.66685682 53.33770717 82.50877575 53.33044624 78.35058212 C53.32940332 76.82845653 53.3317459 75.30632409 53.3378067 73.78421021 C53.59102834 59.20391131 53.59102834 59.20391131 47.0859375 46.53125 C39.8979196 41.05716338 32.1351459 41.40705365 23.53515625 41.42578125 C21.45376567 41.41232597 19.37238474 41.39730296 17.29101562 41.38085938 C14.03229092 41.35805051 10.77466313 41.34374532 7.51586914 41.35620117 C4.35484302 41.36505559 1.19596013 41.33603511 -1.96484375 41.30078125 C-2.92763748 41.31301224 -3.89043121 41.32524323 -4.88240051 41.33784485 C-11.99870548 41.21158161 -16.52091215 39.17266079 -21.9140625 34.53125 C-26.49863749 29.16394269 -26.64036615 23.93988559 -26.42578125 16.984375 C-25.6580517 11.80366569 -23.73599168 8.10636183 -19.9140625 4.53125 C-13.51603621 -0.19977472 -7.78366814 -0.05288256 0 0 Z " fill="#FF5BF4" transform="translate(417.9140625,115.46875)"/>
<path d="M0 0 C1.02574883 0.00212242 1.02574883 0.00212242 2.07221985 0.00428772 C4.25261847 0.00987749 6.43291376 0.02242803 8.61328125 0.03515625 C10.09309747 0.04017258 11.57291531 0.04473525 13.05273438 0.04882812 C16.67711682 0.05984354 20.30143895 0.07710113 23.92578125 0.09765625 C23.64863281 0.87109375 23.37148437 1.64453125 23.0859375 2.44140625 C19.1034247 13.89290212 18.79136063 24.13712225 18.86328125 36.09765625 C18.86830549 37.55468596 18.87286676 39.01171735 18.87695312 40.46875 C18.88788737 44.01175395 18.90510125 47.55469422 18.92578125 51.09765625 C19.94671875 49.48890625 19.94671875 49.48890625 20.98828125 47.84765625 C23.42697744 44.00486225 26.77757508 41.82230684 30.92578125 40.09765625 C34.02764934 39.54235943 37.06098696 39.52977798 40.20654297 39.54833984 C41.10994415 39.53811798 42.01334534 39.52789612 42.94412231 39.5173645 C45.91484468 39.48968442 48.88463317 39.49147718 51.85546875 39.49609375 C53.93141013 39.48831339 56.00734834 39.47964272 58.08328247 39.47012329 C62.4291619 39.45522283 66.77471631 39.4557635 71.12060547 39.46630859 C76.67460548 39.47789255 82.22727036 39.44404069 87.78104973 39.39761925 C92.06722722 39.36807435 96.35308578 39.36641055 100.63934708 39.3726387 C102.68617521 39.37161569 104.73302201 39.36120431 106.77975082 39.34101486 C126.08385946 39.17395915 126.08385946 39.17395915 132.45193481 44.51773071 C138.08124137 50.5522028 138.69038699 55.44750481 138.4375 63.64453125 C137.45325783 70.28628754 134.40940608 74.20262342 129.17211914 78.19873047 C123.57551195 81.33775645 117.20688897 80.517225 110.98828125 80.34765625 C109.73208984 80.32960938 108.47589844 80.3115625 107.18164062 80.29296875 C104.09556209 80.24603219 101.01107344 80.18038039 97.92578125 80.09765625 C97.93910492 80.91705185 97.95242859 81.73644745 97.96615601 82.58067322 C98.08678109 90.3332009 98.1779306 98.08526848 98.23665428 105.83849239 C98.26786101 109.82380913 98.31013408 113.8083453 98.37841797 117.79321289 C98.44399789 121.64474122 98.47956731 125.4955227 98.49504471 129.3475666 C98.50606258 130.81115019 98.52757785 132.27469659 98.56016159 133.73795891 C98.74980687 142.61402261 98.29547576 149.37441689 91.92578125 156.09765625 C86.55847394 160.68223124 81.33441684 160.8239599 74.37890625 160.609375 C67.76157518 159.62875241 63.8808915 156.58888191 59.83349609 151.43164062 C56.52665069 145.48460244 57.43787141 138.35971967 57.53515625 131.7578125 C57.54262609 130.26566835 57.54831551 128.77351432 57.55230713 127.28135681 C57.56750528 123.37340728 57.6067354 119.46606205 57.65112305 115.55834961 C57.69220246 111.56307141 57.71034504 107.5676946 57.73046875 103.57226562 C57.77323659 95.74712175 57.84141561 87.922474 57.92578125 80.09765625 C57.15500244 80.12907715 56.38422363 80.16049805 55.59008789 80.19287109 C52.05645774 80.31853249 48.52329896 80.39592718 44.98828125 80.47265625 C43.77591797 80.52292969 42.56355469 80.57320313 41.31445312 80.625 C34.19387129 80.74078182 29.49171841 80.15046256 23.69311523 75.88525391 C21.64864328 73.81734071 20.32304132 71.63807996 18.92578125 69.09765625 C18.87890202 83.36299396 18.8438481 97.62831959 18.82215691 111.89371872 C18.81174345 118.51852856 18.79762886 125.14328645 18.77490234 131.76806641 C18.75308694 138.16769162 18.7411943 144.56726703 18.73602676 150.96692657 C18.73234659 153.4020084 18.72516032 155.83708766 18.71432114 158.27214813 C18.69969064 161.69679035 18.69780813 165.12122973 18.69873047 168.54589844 C18.69153992 169.5406871 18.68434937 170.53547577 18.67694092 171.56040955 C18.70576628 181.52558892 20.03138492 190.89271947 23.92578125 200.09765625 C19.65745144 200.19731194 15.38975656 200.26949016 11.12060547 200.31738281 C9.67159208 200.3373692 8.222658 200.36456822 6.77392578 200.39941406 C-9.95128566 200.79132115 -9.95128566 200.79132115 -16.57763672 194.72021484 C-21.4144195 189.43918502 -22.32272302 183.9597151 -22.34164429 177.0140686 C-22.3461754 176.32446623 -22.35070651 175.63486386 -22.35537493 174.92436445 C-22.3679805 172.62610218 -22.36640109 170.32807805 -22.36474609 168.02978516 C-22.37073371 166.37687375 -22.3775398 164.72396514 -22.38510132 163.07106018 C-22.40274376 158.58960128 -22.40745593 154.1082188 -22.40873289 149.62672853 C-22.41015593 146.82485824 -22.41442839 144.0230073 -22.41972733 141.22114182 C-22.43822107 131.44070963 -22.44639867 121.6603319 -22.44482422 111.87988281 C-22.44362266 102.77190887 -22.4647294 93.66417184 -22.49631155 84.55625784 C-22.52248483 76.72846446 -22.53319109 68.90074842 -22.5319134 61.07291162 C-22.53140412 56.40126166 -22.53706861 51.72982236 -22.5582695 47.05821609 C-22.5776699 42.66354567 -22.57776414 38.26928651 -22.56323624 33.87460136 C-22.56114934 32.26539317 -22.56584196 30.65615911 -22.57795715 29.04699516 C-22.68435412 13.93150477 -22.68435412 13.93150477 -18.07421875 7.09765625 C-16.0390625 5.0390625 -16.0390625 5.0390625 -14.01171875 3.66015625 C-13.34011719 3.18707031 -12.66851562 2.71398437 -11.9765625 2.2265625 C-7.97922314 -0.14557523 -4.55201352 -0.01857965 0 0 Z " fill="#CDE0F1" transform="translate(62.07421875,155.90234375)"/>
<path d="M0 0 C0.90340118 -0.01022186 1.80680237 -0.02044373 2.73757935 -0.03097534 C5.70830171 -0.05865542 8.6780902 -0.05686266 11.64892578 -0.05224609 C13.72486716 -0.06002646 15.80080537 -0.06869712 17.8767395 -0.07821655 C22.22261893 -0.09311701 26.56817334 -0.09257634 30.9140625 -0.08203125 C36.46806252 -0.07044729 42.02072739 -0.10429915 47.57450676 -0.1507206 C51.86068425 -0.18026549 56.14654281 -0.18192929 60.43280411 -0.17570114 C62.47963225 -0.17672415 64.52647904 -0.18713553 66.57320786 -0.20732498 C85.87731649 -0.3743807 85.87731649 -0.3743807 92.24539185 4.96939087 C97.8746984 11.00386296 98.48384402 15.89916497 98.23095703 24.09619141 C97.24671487 30.7379477 94.20286311 34.65428358 88.96557617 38.65039062 C83.36896898 41.78941661 77.000346 40.96888515 70.78173828 40.79931641 C69.52554688 40.78126953 68.26935547 40.76322266 66.97509766 40.74462891 C63.88901912 40.69769235 60.80453048 40.63204054 57.71923828 40.54931641 C57.73256195 41.36871201 57.74588562 42.1881076 57.75961304 43.03233337 C57.88023812 50.78486106 57.97138764 58.53692864 58.03011131 66.29015255 C58.06131804 70.27546928 58.10359111 74.26000546 58.171875 78.24487305 C58.23745492 82.09640137 58.27302434 85.94718286 58.28850174 89.79922676 C58.29951961 91.26281035 58.32103488 92.72635675 58.35361862 94.18961906 C58.5432639 103.06568276 58.0889328 109.82607705 51.71923828 116.54931641 C46.35193098 121.1338914 41.12787387 121.27562006 34.17236328 121.06103516 C27.55503221 120.08041257 23.67434853 117.04054207 19.62695312 111.88330078 C16.32010772 105.93626259 17.23132844 98.81137983 17.32861328 92.20947266 C17.33608312 90.71732851 17.34177254 89.22517448 17.34576416 87.73301697 C17.36096231 83.82506743 17.40019243 79.91772221 17.44458008 76.01000977 C17.48565949 72.01473157 17.50380207 68.01935476 17.52392578 64.02392578 C17.56669362 56.19878191 17.63487264 48.37413416 17.71923828 40.54931641 C16.94845947 40.5807373 16.17768066 40.6121582 15.38354492 40.64453125 C11.84991477 40.77019264 8.31675599 40.84758734 4.78173828 40.92431641 C3.569375 40.97458984 2.35701172 41.02486328 1.10791016 41.07666016 C-7.01952439 41.20881356 -12.22176966 40.14341978 -18.28076172 34.54931641 C-22.86533671 29.1820091 -23.00706537 23.957952 -22.79248047 17.00244141 C-22.02475092 11.82173209 -20.1026909 8.12442824 -16.28076172 4.54931641 C-10.69413927 0.7284584 -6.69247394 -0.03949215 0 0 Z " fill="#0022C4" transform="translate(102.28076171875,195.45068359375)"/>
</svg>
